<svg xmlns="http://www.w3.org/2000/svg" viewBox="0 0 720 560" fill="none" stroke="#000" stroke-width="4" stroke-linecap="round" stroke-linejoin="round">
  <!-- Ch5 "Ship and Remember" — the boat, the tag, the notebook. Original B&W line art. -->
  <!-- paper boat -->
  <path d="M210 330 L510 330 L450 396 L270 396 Z" fill="#fff"/>
  <path d="M270 330 L360 200 L450 330" fill="#fff"/>
  <line x1="360" y1="200" x2="360" y2="330"/>
  <!-- version tag tied to the bow -->
  <path d="M452 318 q40 -36 76 -50" stroke-dasharray="2 10"/>
  <rect x="520" y="226" width="120" height="56" rx="10" fill="#fff" transform="rotate(-12 580 254)"/>
  <circle cx="540" cy="262" r="7" fill="#fff" transform="rotate(-12 580 254)"/>
  <text x="586" y="262" font-family="Menlo, Consolas, monospace" font-size="22" fill="#000" stroke="none" text-anchor="middle" transform="rotate(-12 580 254)">v1.0</text>
  <!-- waves -->
  <path d="M120 420 q30 -22 60 0 q30 22 60 0 q30 -22 60 0 q30 22 60 0 q30 -22 60 0 q30 22 60 0 q30 -22 60 0"/>
  <path d="M170 462 q30 -22 60 0 q30 22 60 0 q30 -22 60 0 q30 22 60 0 q30 -22 60 0"/>
  <!-- open logbook, bottom left -->
  <path d="M80 520 q50 -18 100 0 v-86 q-50 -18 -100 0 Z" fill="#fff"/>
  <path d="M180 520 q50 -18 100 0 v-86 q-50 -18 -100 0 Z" fill="#fff"/>
  <line x1="100" y1="462" x2="160" y2="450"/>
  <line x1="100" y1="482" x2="160" y2="470"/>
  <line x1="200" y1="450" x2="260" y2="462"/>
  <line x1="200" y1="470" x2="260" y2="482"/>
</svg>
