<svg xmlns="http://www.w3.org/2000/svg" viewBox="0 0 720 560" fill="none" stroke="#000" stroke-width="4" stroke-linecap="round" stroke-linejoin="round">
  <!-- Ch3 "Build" — the crane and the containers. Original B&W line art. -->
  <!-- ground -->
  <line x1="30" y1="510" x2="690" y2="510"/>
  <!-- crane mast (lattice) -->
  <line x1="120" y1="510" x2="120" y2="90"/>
  <line x1="160" y1="510" x2="160" y2="90"/>
  <line x1="120" y1="470" x2="160" y2="430"/>
  <line x1="160" y1="470" x2="120" y2="430"/>
  <line x1="120" y1="390" x2="160" y2="350"/>
  <line x1="160" y1="390" x2="120" y2="350"/>
  <line x1="120" y1="310" x2="160" y2="270"/>
  <line x1="160" y1="310" x2="120" y2="270"/>
  <line x1="120" y1="230" x2="160" y2="190"/>
  <line x1="160" y1="230" x2="120" y2="190"/>
  <line x1="120" y1="150" x2="160" y2="110"/>
  <line x1="160" y1="150" x2="120" y2="110"/>
  <!-- jib -->
  <line x1="100" y1="90" x2="560" y2="90"/>
  <line x1="120" y1="130" x2="540" y2="98"/>
  <!-- counterweight -->
  <rect x="60" y="96" width="44" height="30" fill="#fff"/>
  <!-- trolley + cable + hook -->
  <rect x="430" y="84" width="28" height="14" fill="#fff"/>
  <line x1="444" y1="98" x2="444" y2="230"/>
  <path d="M444 230 q0 16 -14 16 q-12 0 -12 -12"/>
  <!-- lifted container -->
  <rect x="384" y="262" width="120" height="64" fill="#fff"/>
  <line x1="414" y1="262" x2="414" y2="326"/>
  <line x1="444" y1="262" x2="444" y2="326"/>
  <line x1="474" y1="262" x2="474" y2="326"/>
  <line x1="404" y1="262" x2="444" y2="246"/>
  <line x1="484" y1="262" x2="444" y2="246"/>
  <!-- container stack -->
  <rect x="380" y="446" width="120" height="64" fill="#fff"/>
  <line x1="410" y1="446" x2="410" y2="510"/>
  <line x1="440" y1="446" x2="440" y2="510"/>
  <line x1="470" y1="446" x2="470" y2="510"/>
  <rect x="510" y="446" width="120" height="64" fill="#fff"/>
  <line x1="540" y1="446" x2="540" y2="510"/>
  <line x1="570" y1="446" x2="570" y2="510"/>
  <line x1="600" y1="446" x2="600" y2="510"/>
  <rect x="445" y="382" width="120" height="64" fill="#fff"/>
  <line x1="475" y1="382" x2="475" y2="446"/>
  <line x1="505" y1="382" x2="505" y2="446"/>
  <line x1="535" y1="382" x2="535" y2="446"/>
</svg>
