<svg xmlns="http://www.w3.org/2000/svg" width="1000" height="620" viewBox="0 0 1000 620" font-family="Arial,Helvetica,sans-serif">
<rect width="1000" height="620" fill="#101010"/>
<text x="90" y="38" fill="#f0f6fc" font-size="26" font-weight="bold">Rule-following vs. number of rules in context</text>
<text x="90" y="60" fill="#8b949e" font-size="14">subject models, rules prompt-baked · judge: GPT-OSS-120B · 10-min full-stack task + polish · grade = mean score, N/A excluded</text>
<text x="90" y="84" fill="#58a6ff" font-size="13">raw data + harness: github.com/edhaynes/eds-rules/tree/main/experiments/rule-scaling</text>
<line x1="90" y1="540.0" x2="940" y2="540.0" stroke="#30363d" stroke-width="1"/>
<text x="78" y="545.0" fill="#8b949e" font-size="13" text-anchor="end">0</text>
<line x1="90" y1="431.0" x2="940" y2="431.0" stroke="#30363d" stroke-width="1"/>
<text x="78" y="436.0" fill="#8b949e" font-size="13" text-anchor="end">25</text>
<line x1="90" y1="322.0" x2="940" y2="322.0" stroke="#30363d" stroke-width="1"/>
<text x="78" y="327.0" fill="#8b949e" font-size="13" text-anchor="end">50</text>
<line x1="90" y1="213.0" x2="940" y2="213.0" stroke="#30363d" stroke-width="1"/>
<text x="78" y="218.0" fill="#8b949e" font-size="13" text-anchor="end">75</text>
<line x1="90" y1="104.0" x2="940" y2="104.0" stroke="#30363d" stroke-width="1"/>
<text x="78" y="109.0" fill="#8b949e" font-size="13" text-anchor="end">100</text>
<line x1="90" y1="147.6" x2="940" y2="147.6" stroke="#3fb950" stroke-width="2" stroke-dasharray="9 6"/>
<text x="934" y="138.6" fill="#3fb950" font-size="14" font-weight="bold" text-anchor="end">goal: 90%</text>
<text x="26" y="322" fill="#f0f6fc" font-size="15" transform="rotate(-90 26 322)" text-anchor="middle">grade (0–100)</text>
<line x1="90.0" y1="540" x2="90.0" y2="546" stroke="#8b949e"/>
<text x="90.0" y="566" fill="#8b949e" font-size="13" text-anchor="middle">1</text>
<line x1="211.4" y1="540" x2="211.4" y2="546" stroke="#8b949e"/>
<text x="211.4" y="566" fill="#8b949e" font-size="13" text-anchor="middle">2</text>
<line x1="332.9" y1="540" x2="332.9" y2="546" stroke="#8b949e"/>
<text x="332.9" y="566" fill="#8b949e" font-size="13" text-anchor="middle">4</text>
<line x1="454.3" y1="540" x2="454.3" y2="546" stroke="#8b949e"/>
<text x="454.3" y="566" fill="#8b949e" font-size="13" text-anchor="middle">8</text>
<line x1="575.7" y1="540" x2="575.7" y2="546" stroke="#8b949e"/>
<text x="575.7" y="566" fill="#8b949e" font-size="13" text-anchor="middle">16</text>
<line x1="697.1" y1="540" x2="697.1" y2="546" stroke="#8b949e"/>
<text x="697.1" y="566" fill="#8b949e" font-size="13" text-anchor="middle">32</text>
<line x1="818.6" y1="540" x2="818.6" y2="546" stroke="#8b949e"/>
<text x="818.6" y="566" fill="#8b949e" font-size="13" text-anchor="middle">64</text>
<line x1="940.0" y1="540" x2="940.0" y2="546" stroke="#8b949e"/>
<text x="940.0" y="566" fill="#8b949e" font-size="13" text-anchor="middle">128</text>
<text x="515" y="600" fill="#f0f6fc" font-size="15" text-anchor="middle">number of rules in the prompt (log scale)</text>
<polyline points="211.4,104.0 332.9,104.0 454.3,300.2 575.7,274.5 697.1,366.5 818.6,384.3 940.0,349.5" fill="none" stroke="#ee0000" stroke-width="3"/>
<circle cx="211.4" cy="104.0" r="4.5" fill="#ee0000"/>
<circle cx="332.9" cy="104.0" r="4.5" fill="#ee0000"/>
<circle cx="454.3" cy="300.2" r="4.5" fill="#ee0000"/>
<circle cx="575.7" cy="274.5" r="4.5" fill="#ee0000"/>
<circle cx="697.1" cy="366.5" r="4.5" fill="#ee0000"/>
<circle cx="818.6" cy="384.3" r="4.5" fill="#ee0000"/>
<circle cx="940.0" cy="349.5" r="4.5" fill="#ee0000"/>
<polyline points="211.4,104.0 332.9,162.0 454.3,113.2 575.7,124.1 697.1,297.1 818.6,257.5 940.0,190.8" fill="none" stroke="#58a6ff" stroke-width="3"/>
<circle cx="211.4" cy="104.0" r="4.5" fill="#58a6ff"/>
<circle cx="332.9" cy="162.0" r="4.5" fill="#58a6ff"/>
<circle cx="454.3" cy="113.2" r="4.5" fill="#58a6ff"/>
<circle cx="575.7" cy="124.1" r="4.5" fill="#58a6ff"/>
<circle cx="697.1" cy="297.1" r="4.5" fill="#58a6ff"/>
<circle cx="818.6" cy="257.5" r="4.5" fill="#58a6ff"/>
<circle cx="940.0" cy="190.8" r="4.5" fill="#58a6ff"/>
<polyline points="211.4,104.0 332.9,152.4 454.3,227.4 575.7,223.0 697.1,360.4 818.6,359.9 940.0,389.1" fill="none" stroke="#d2a84b" stroke-width="3"/>
<circle cx="211.4" cy="104.0" r="4.5" fill="#d2a84b"/>
<circle cx="332.9" cy="152.4" r="4.5" fill="#d2a84b"/>
<circle cx="454.3" cy="227.4" r="4.5" fill="#d2a84b"/>
<circle cx="575.7" cy="223.0" r="4.5" fill="#d2a84b"/>
<circle cx="697.1" cy="360.4" r="4.5" fill="#d2a84b"/>
<circle cx="818.6" cy="359.9" r="4.5" fill="#d2a84b"/>
<circle cx="940.0" cy="389.1" r="4.5" fill="#d2a84b"/>
<polyline points="211.4,104.0 332.9,104.0 454.3,214.3 575.7,282.8 697.1,366.5 818.6,339.0 940.0,335.1" fill="none" stroke="#a371f7" stroke-width="3"/>
<circle cx="211.4" cy="104.0" r="4.5" fill="#a371f7"/>
<circle cx="332.9" cy="104.0" r="4.5" fill="#a371f7"/>
<circle cx="454.3" cy="214.3" r="4.5" fill="#a371f7"/>
<circle cx="575.7" cy="282.8" r="4.5" fill="#a371f7"/>
<circle cx="697.1" cy="366.5" r="4.5" fill="#a371f7"/>
<circle cx="818.6" cy="339.0" r="4.5" fill="#a371f7"/>
<circle cx="940.0" cy="335.1" r="4.5" fill="#a371f7"/>
<rect x="130" y="116" width="24" height="6" fill="#ee0000"/>
<text x="164" y="124" fill="#f0f6fc" font-size="15">granite3.1-dense:2b</text>
<rect x="130" y="143" width="24" height="6" fill="#58a6ff"/>
<text x="164" y="151" fill="#f0f6fc" font-size="15">claude-opus-4-8</text>
<rect x="130" y="170" width="24" height="6" fill="#d2a84b"/>
<text x="164" y="178" fill="#f0f6fc" font-size="15">gemma3:4b</text>
<rect x="130" y="197" width="24" height="6" fill="#a371f7"/>
<text x="164" y="205" fill="#f0f6fc" font-size="15">llama3.1:8b</text>
</svg>
