<svg xmlns="http://www.w3.org/2000/svg" width="1000" height="620" viewBox="0 0 1000 620" font-family="Arial,Helvetica,sans-serif">
<rect width="1000" height="620" fill="#101010"/>
<text x="90" y="38" fill="#f0f6fc" font-size="26" font-weight="bold">Rule-following vs. number of rules in context</text>
<text x="90" y="60" fill="#8b949e" font-size="14">subject models, rules prompt-baked · judge: GPT-OSS-120B · 10-min full-stack task + polish</text>
<line x1="90" y1="540.0" x2="940" y2="540.0" stroke="#30363d" stroke-width="1"/>
<text x="78" y="545.0" fill="#8b949e" font-size="13" text-anchor="end">0</text>
<line x1="90" y1="422.5" x2="940" y2="422.5" stroke="#30363d" stroke-width="1"/>
<text x="78" y="427.5" fill="#8b949e" font-size="13" text-anchor="end">25</text>
<line x1="90" y1="305.0" x2="940" y2="305.0" stroke="#30363d" stroke-width="1"/>
<text x="78" y="310.0" fill="#8b949e" font-size="13" text-anchor="end">50</text>
<line x1="90" y1="187.5" x2="940" y2="187.5" stroke="#30363d" stroke-width="1"/>
<text x="78" y="192.5" fill="#8b949e" font-size="13" text-anchor="end">75</text>
<line x1="90" y1="70.0" x2="940" y2="70.0" stroke="#30363d" stroke-width="1"/>
<text x="78" y="75.0" fill="#8b949e" font-size="13" text-anchor="end">100</text>
<text x="26" y="305" fill="#f0f6fc" font-size="15" transform="rotate(-90 26 305)" text-anchor="middle">grade (0–100)</text>
<line x1="90.0" y1="540" x2="90.0" y2="546" stroke="#8b949e"/>
<text x="90.0" y="566" fill="#8b949e" font-size="13" text-anchor="middle">1</text>
<line x1="211.4" y1="540" x2="211.4" y2="546" stroke="#8b949e"/>
<text x="211.4" y="566" fill="#8b949e" font-size="13" text-anchor="middle">2</text>
<line x1="332.9" y1="540" x2="332.9" y2="546" stroke="#8b949e"/>
<text x="332.9" y="566" fill="#8b949e" font-size="13" text-anchor="middle">4</text>
<line x1="454.3" y1="540" x2="454.3" y2="546" stroke="#8b949e"/>
<text x="454.3" y="566" fill="#8b949e" font-size="13" text-anchor="middle">8</text>
<line x1="575.7" y1="540" x2="575.7" y2="546" stroke="#8b949e"/>
<text x="575.7" y="566" fill="#8b949e" font-size="13" text-anchor="middle">16</text>
<line x1="697.1" y1="540" x2="697.1" y2="546" stroke="#8b949e"/>
<text x="697.1" y="566" fill="#8b949e" font-size="13" text-anchor="middle">32</text>
<line x1="818.6" y1="540" x2="818.6" y2="546" stroke="#8b949e"/>
<text x="818.6" y="566" fill="#8b949e" font-size="13" text-anchor="middle">64</text>
<line x1="940.0" y1="540" x2="940.0" y2="546" stroke="#8b949e"/>
<text x="940.0" y="566" fill="#8b949e" font-size="13" text-anchor="middle">128</text>
<text x="515" y="600" fill="#f0f6fc" font-size="15" text-anchor="middle">number of rules in the prompt (log scale)</text>
<polyline points="90.0,305.0 211.4,187.5 332.9,187.5 454.3,275.9 575.7,292.3 697.1,318.2 818.6,334.6 940.0,305.9" fill="none" stroke="#ee0000" stroke-width="3"/>
<circle cx="90.0" cy="305.0" r="4.5" fill="#ee0000"/>
<circle cx="211.4" cy="187.5" r="4.5" fill="#ee0000"/>
<circle cx="332.9" cy="187.5" r="4.5" fill="#ee0000"/>
<circle cx="454.3" cy="275.9" r="4.5" fill="#ee0000"/>
<circle cx="575.7" cy="292.3" r="4.5" fill="#ee0000"/>
<circle cx="697.1" cy="318.2" r="4.5" fill="#ee0000"/>
<circle cx="818.6" cy="334.6" r="4.5" fill="#ee0000"/>
<circle cx="940.0" cy="305.9" r="4.5" fill="#ee0000"/>
<polyline points="90.0,305.0 211.4,187.5 332.9,187.5 454.3,289.5 575.7,303.6 697.1,308.8 818.6,336.5 940.0,294.2" fill="none" stroke="#58a6ff" stroke-width="3"/>
<circle cx="90.0" cy="305.0" r="4.5" fill="#58a6ff"/>
<circle cx="211.4" cy="187.5" r="4.5" fill="#58a6ff"/>
<circle cx="332.9" cy="187.5" r="4.5" fill="#58a6ff"/>
<circle cx="454.3" cy="289.5" r="4.5" fill="#58a6ff"/>
<circle cx="575.7" cy="303.6" r="4.5" fill="#58a6ff"/>
<circle cx="697.1" cy="308.8" r="4.5" fill="#58a6ff"/>
<circle cx="818.6" cy="336.5" r="4.5" fill="#58a6ff"/>
<circle cx="940.0" cy="294.2" r="4.5" fill="#58a6ff"/>
<polyline points="90.0,305.0 211.4,187.5 332.9,187.5 454.3,259.9 575.7,281.5 697.1,289.5 818.6,327.1 940.0,313.0" fill="none" stroke="#3fb950" stroke-width="3"/>
<circle cx="90.0" cy="305.0" r="4.5" fill="#3fb950"/>
<circle cx="211.4" cy="187.5" r="4.5" fill="#3fb950"/>
<circle cx="332.9" cy="187.5" r="4.5" fill="#3fb950"/>
<circle cx="454.3" cy="259.9" r="4.5" fill="#3fb950"/>
<circle cx="575.7" cy="281.5" r="4.5" fill="#3fb950"/>
<circle cx="697.1" cy="289.5" r="4.5" fill="#3fb950"/>
<circle cx="818.6" cy="327.1" r="4.5" fill="#3fb950"/>
<circle cx="940.0" cy="313.0" r="4.5" fill="#3fb950"/>
<polyline points="90.0,242.5 211.4,226.5 332.9,199.2 454.3,200.2 575.7,239.2 697.1,251.0 818.6,235.9 940.0,244.8" fill="none" stroke="#d2a84b" stroke-width="3"/>
<circle cx="90.0" cy="242.5" r="4.5" fill="#d2a84b"/>
<circle cx="211.4" cy="226.5" r="4.5" fill="#d2a84b"/>
<circle cx="332.9" cy="199.2" r="4.5" fill="#d2a84b"/>
<circle cx="454.3" cy="200.2" r="4.5" fill="#d2a84b"/>
<circle cx="575.7" cy="239.2" r="4.5" fill="#d2a84b"/>
<circle cx="697.1" cy="251.0" r="4.5" fill="#d2a84b"/>
<circle cx="818.6" cy="235.9" r="4.5" fill="#d2a84b"/>
<circle cx="940.0" cy="244.8" r="4.5" fill="#d2a84b"/>
<rect x="130" y="82" width="24" height="6" fill="#ee0000"/>
<text x="164" y="90" fill="#f0f6fc" font-size="15">granite3.1-dense:2b</text>
<rect x="130" y="109" width="24" height="6" fill="#58a6ff"/>
<text x="164" y="117" fill="#f0f6fc" font-size="15">llama3.1:8b</text>
<rect x="130" y="136" width="24" height="6" fill="#3fb950"/>
<text x="164" y="144" fill="#f0f6fc" font-size="15">gemma3:4b</text>
<rect x="130" y="163" width="24" height="6" fill="#d2a84b"/>
<text x="164" y="171" fill="#f0f6fc" font-size="15">claude-opus-4-8</text>
</svg>
