<svg xmlns="http://www.w3.org/2000/svg" width="900" height="540" font-family="Helvetica,Arial,sans-serif" font-size="12">
<rect width="900" height="540" fill="#fff"/>
<text x="70" y="34" font-size="20" font-weight="bold" fill="#1a1a1a">Polish rounds — do new rules keep coming?</text>
<text x="70" y="52" font-size="12" fill="#666">Best candidate quality per review round (recalibrated rubric, 0-100). Dashed = 50 keep/cut bar.</text>
<line x1="70" y1="480.0" x2="660" y2="480.0" stroke="#eee"/>
<text x="62" y="484.0" text-anchor="end" font-size="10" fill="#999">0</text>
<line x1="70" y1="333.6" x2="660" y2="333.6" stroke="#eee"/>
<text x="62" y="337.6" text-anchor="end" font-size="10" fill="#999">25</text>
<line x1="70" y1="187.1" x2="660" y2="187.1" stroke="#eee"/>
<text x="62" y="191.1" text-anchor="end" font-size="10" fill="#999">50</text>
<line x1="70" y1="70.0" x2="660" y2="70.0" stroke="#eee"/>
<text x="62" y="74.0" text-anchor="end" font-size="10" fill="#999">70</text>
<line x1="70" y1="187.1" x2="660" y2="187.1" stroke="#c0392b" stroke-width="1.6" stroke-dasharray="5,3"/>
<text x="666" y="191.1" font-size="11" fill="#c0392b" font-weight="bold">50 keep/cut</text>
<circle cx="70.0" cy="140.3" r="3.2" fill="#16a085" opacity="0.55"/>
<circle cx="70.0" cy="152.0" r="3.2" fill="#16a085" opacity="0.55"/>
<circle cx="135.6" cy="154.9" r="3.2" fill="#16a085" opacity="0.55"/>
<circle cx="135.6" cy="172.5" r="3.2" fill="#16a085" opacity="0.55"/>
<circle cx="201.1" cy="178.4" r="3.2" fill="#16a085" opacity="0.55"/>
<circle cx="201.1" cy="190.1" r="3.2" fill="#c0392b" opacity="0.55"/>
<circle cx="266.7" cy="190.1" r="3.2" fill="#c0392b" opacity="0.55"/>
<circle cx="266.7" cy="193.0" r="3.2" fill="#c0392b" opacity="0.55"/>
<circle cx="332.2" cy="193.0" r="3.2" fill="#c0392b" opacity="0.55"/>
<circle cx="332.2" cy="201.8" r="3.2" fill="#c0392b" opacity="0.55"/>
<circle cx="397.8" cy="201.8" r="3.2" fill="#c0392b" opacity="0.55"/>
<circle cx="397.8" cy="207.6" r="3.2" fill="#c0392b" opacity="0.55"/>
<circle cx="463.3" cy="222.3" r="3.2" fill="#c0392b" opacity="0.55"/>
<circle cx="463.3" cy="234.0" r="3.2" fill="#c0392b" opacity="0.55"/>
<circle cx="528.9" cy="245.7" r="3.2" fill="#c0392b" opacity="0.55"/>
<circle cx="528.9" cy="248.6" r="3.2" fill="#c0392b" opacity="0.55"/>
<circle cx="594.4" cy="263.3" r="3.2" fill="#c0392b" opacity="0.55"/>
<circle cx="594.4" cy="286.7" r="3.2" fill="#c0392b" opacity="0.55"/>
<circle cx="660.0" cy="292.6" r="3.2" fill="#c0392b" opacity="0.55"/>
<circle cx="660.0" cy="301.4" r="3.2" fill="#c0392b" opacity="0.55"/>
<circle cx="660.0" cy="304.3" r="3.2" fill="#c0392b" opacity="0.55"/>
<polyline points="70.0,140.3 135.6,154.9 201.1,178.4 266.7,190.1 332.2,193.0 397.8,201.8 463.3,222.3 528.9,245.7 594.4,263.3 660.0,292.6" fill="none" stroke="#2c3e50" stroke-width="2"/>
<circle cx="70.0" cy="140.3" r="4.5" fill="#2c3e50"/>
<text x="70.0" y="131.3" text-anchor="middle" font-size="10" fill="#2c3e50">58</text>
<text x="70.0" y="498.0" text-anchor="middle" font-size="11" fill="#444">R1</text>
<circle cx="135.6" cy="154.9" r="4.5" fill="#2c3e50"/>
<text x="135.6" y="145.9" text-anchor="middle" font-size="10" fill="#2c3e50">56</text>
<text x="135.6" y="498.0" text-anchor="middle" font-size="11" fill="#444">R2</text>
<circle cx="201.1" cy="178.4" r="4.5" fill="#2c3e50"/>
<text x="201.1" y="169.4" text-anchor="middle" font-size="10" fill="#2c3e50">52</text>
<text x="201.1" y="498.0" text-anchor="middle" font-size="11" fill="#444">R3</text>
<circle cx="266.7" cy="190.1" r="4.5" fill="#2c3e50"/>
<text x="266.7" y="181.1" text-anchor="middle" font-size="10" fill="#2c3e50">50</text>
<text x="266.7" y="498.0" text-anchor="middle" font-size="11" fill="#444">R4</text>
<circle cx="332.2" cy="193.0" r="4.5" fill="#2c3e50"/>
<text x="332.2" y="184.0" text-anchor="middle" font-size="10" fill="#2c3e50">49</text>
<text x="332.2" y="498.0" text-anchor="middle" font-size="11" fill="#444">R5</text>
<circle cx="397.8" cy="201.8" r="4.5" fill="#2c3e50"/>
<text x="397.8" y="192.8" text-anchor="middle" font-size="10" fill="#2c3e50">48</text>
<text x="397.8" y="498.0" text-anchor="middle" font-size="11" fill="#444">R6</text>
<circle cx="463.3" cy="222.3" r="4.5" fill="#2c3e50"/>
<text x="463.3" y="213.3" text-anchor="middle" font-size="10" fill="#2c3e50">44</text>
<text x="463.3" y="498.0" text-anchor="middle" font-size="11" fill="#444">R7</text>
<circle cx="528.9" cy="245.7" r="4.5" fill="#2c3e50"/>
<text x="528.9" y="236.7" text-anchor="middle" font-size="10" fill="#2c3e50">40</text>
<text x="528.9" y="498.0" text-anchor="middle" font-size="11" fill="#444">R8</text>
<circle cx="594.4" cy="263.3" r="4.5" fill="#2c3e50"/>
<text x="594.4" y="254.3" text-anchor="middle" font-size="10" fill="#2c3e50">37</text>
<text x="594.4" y="498.0" text-anchor="middle" font-size="11" fill="#444">R9</text>
<circle cx="660.0" cy="292.6" r="4.5" fill="#2c3e50"/>
<text x="660.0" y="283.6" text-anchor="middle" font-size="10" fill="#2c3e50">32</text>
<text x="660.0" y="498.0" text-anchor="middle" font-size="11" fill="#444">R10</text>
<text x="365" y="526" text-anchor="middle" font-size="12" fill="#444">polish round</text>
<text x="266.7" y="212.1" text-anchor="middle" font-size="10" fill="#c0392b">taper crosses bar</text>
<text x="666" y="76" font-size="10" font-weight="bold" fill="#333">best find each round</text>
<text x="666" y="92" font-size="9" fill="#16a085">R1 58 UTC everywhere; no naive datet</text>
<text x="666" y="107" font-size="9" fill="#16a085">R2 56 Timeouts + retries + circuit b</text>
<text x="666" y="122" font-size="9" fill="#16a085">R3 52 Migrations: forward-only, reve</text>
<text x="666" y="137" font-size="9" fill="#c0392b">R4 50 Independent review of AI outpu</text>
<text x="666" y="152" font-size="9" fill="#c0392b">R5 49 Safe-by-default perms (no 0777</text>
<text x="666" y="167" font-size="9" fill="#c0392b">R6 48 Reproducible / deterministic b</text>
<text x="666" y="182" font-size="9" fill="#c0392b">R7 44 Backups + a tested restore (DR</text>
<text x="666" y="197" font-size="9" fill="#c0392b">R8 40 Cache-invalidation discipline</text>
<text x="666" y="212" font-size="9" fill="#c0392b">R9 37 API versioning / deprecation p</text>
<text x="666" y="227" font-size="9" fill="#c0392b">R10 32 License / SPDX headers</text>
</svg>
